<?xml version="1.0" encoding="UTF-8"?>
<svg width="11px" height="11px" viewBox="0 0 11 11" version="1.1" xmlns="http://www.w3.org/2000/svg" xmlns:xlink="http://www.w3.org/1999/xlink">
    <!-- Generator: Sketch 64 (93537) - https://sketch.com -->
    <title>7.Icon/arrow/20.arrowleft</title>
    <desc>Created with Sketch.</desc>
    <g id="页面-1" stroke="none" stroke-width="1" fill="none" fill-rule="evenodd">
        <g id="登录备份" transform="translate(-1301.000000, -612.000000)" fill="#FFFFFF" fill-rule="nonzero">
            <g id="7.Icon/arrow/20.arrowleft" transform="translate(1301.000000, 611.000000)">
                <path d="M10.8804388,5.91292135 L2.13603478,5.91292135 L7.36982439,1.21629213 C7.4535172,1.14058989 7.40270371,1 7.29210964,1 L5.96946435,1 C5.91117829,1 5.85588125,1.02162921 5.81254033,1.06025281 L0.164770218,6.1261236 C-0.0549234061,6.3238764 -0.0549234061,6.6761236 0.164770218,6.87233146 L5.84541965,11.9691011 C5.86783737,11.9891854 5.89473863,12 5.9231344,12 L7.29061513,12 C7.4012092,12 7.45202269,11.8578652 7.36832988,11.7837079 L2.13603478,7.08707865 L10.8804388,7.08707865 C10.9461975,7.08707865 11,7.03146067 11,6.96348315 L11,6.03651685 C11,5.96853933 10.9461975,5.91292135 10.8804388,5.91292135 Z" id="fill" transform="translate(5.500000, 6.500000) scale(-1, 1) translate(-5.500000, -6.500000) "></path>
            </g>
        </g>
    </g>
</svg>