<svg width="16" height="16" viewBox="0 0 16 16" fill="none" xmlns="http://www.w3.org/2000/svg">
<path d="M7.99998 16C3.06851 16 1 14.2123 1 10.5384C1 7.49476 3.34558 4.31849 6.18905 3.31645H9.81095C12.6545 4.31849 15 7.49475 15 10.5384C15 14.2123 12.9315 16 7.99996 16H7.99998ZM9.9399 9.96295V9.96172C10.2672 9.95998 10.5319 9.69052 10.5319 9.35857C10.5319 9.0263 10.2672 8.75714 9.9399 8.75505V8.75362H8.73925C8.74159 8.74005 8.73766 8.72797 8.73883 8.71441L10.146 7.25659C10.3755 6.99452 10.2587 6.77781 10.0267 6.54021C9.79329 6.30139 9.41176 6.25129 9.22315 6.45943L8.01319 7.76661L6.70624 6.44202C6.54085 6.27457 6.21912 6.32912 5.9876 6.56378C5.75587 6.79875 5.70223 7.12509 5.86746 7.29256L7.20413 8.64691C7.17912 8.67931 7.16293 8.71532 7.15324 8.75365H6.06691V8.75476C6.0659 8.75476 6.06483 8.75476 6.06386 8.75476C5.73484 8.75476 5.46809 9.02484 5.46809 9.35855C5.46809 9.69165 5.73484 9.96229 6.06386 9.96229C6.06485 9.96229 6.0659 9.96169 6.06691 9.96169V9.96292H7.25765V10.5643H6.06691V10.5661C6.0659 10.5661 6.06483 10.5661 6.06386 10.5661C5.73484 10.5661 5.46809 10.8361 5.46809 11.1698C5.46809 11.5029 5.73484 11.7736 6.06386 11.7736C6.06485 11.7736 6.0659 11.773 6.06691 11.773V11.7736H7.25765V12.3815H7.27C7.26067 12.4287 7.25532 12.4779 7.25532 12.5283C7.25532 12.9452 7.58868 13.283 7.99998 13.283C8.41134 13.283 8.74466 12.9452 8.74466 12.5283C8.74466 12.4779 8.73925 12.4287 8.72996 12.3815H8.73692V11.7736L9.93993 11.773C10.2672 11.7709 10.5319 11.5018 10.5319 11.1698C10.5319 10.8376 10.2672 10.5684 9.93993 10.5664V10.5643H8.73692V9.96288H9.93993L9.9399 9.96295ZM10.8297 0.90579L10.7045 1.06438C10.7017 1.06733 10.6998 1.07085 10.6971 1.0738L9.63825 2.41517H6.06381L5.00699 1.07611C4.99914 1.06843 4.99404 1.05904 4.98678 1.05077L4.87231 0.905726L4.89251 0.864747C4.88277 0.827577 4.86983 0.791331 4.86983 0.751244C4.86983 0.559035 4.98911 0.396616 5.15607 0.330564L5.17019 0.301938C5.17019 0.301938 6.63441 0.00507247 7.85101 6.75979e-05C9.12425 -0.00522418 10.5319 0.301938 10.5319 0.301938L10.5463 0.330835C10.7122 0.397477 10.8305 0.559625 10.8305 0.751213C10.8305 0.790741 10.8177 0.825855 10.8084 0.862053L10.8297 0.905726L10.8297 0.90579Z" fill="#28B88C"/>
</svg>
