<?xml version="1.0" encoding="UTF-8"?>
<svg width="53px" height="41px" viewBox="0 0 53 41" version="1.1" xmlns="http://www.w3.org/2000/svg" xmlns:xlink="http://www.w3.org/1999/xlink">
    <title>mdpi/编组 2</title>
    <g id="页面-1" stroke="none" stroke-width="1" fill="none" fill-rule="evenodd">
        <g id="充值记录-国际号码检测备份" transform="translate(-286.000000, -637.000000)">
            <g id="编组-2" transform="translate(286.500000, 637.500000)">
                <path d="M48.5,0 C49.2796961,0 49.9204487,0.594888083 49.9931334,1.35553999 L50,1.5 L50,19 C50,19.8284271 49.3284271,20.5 48.5,20.5 C47.7203039,20.5 47.0795513,19.9051119 47.0068666,19.14446 L47,19 L47,3 L3,3 L3,34.5 L31.5,34.5 C32.2796961,34.5 32.9204487,35.0948881 32.9931334,35.85554 L33,36 C33,36.7796961 32.4051119,37.4204487 31.64446,37.4931334 L31.5,37.5 L1.5,37.5 C0.720303883,37.5 0.0795513218,36.9051119 0.00686657806,36.14446 L0,36 L0,1.5 C0,0.720303883 0.594888083,0.0795513218 1.35553999,0.00686657806 L1.5,0 L48.5,0 Z" id="矩形" fill="#4F8EFD" fill-rule="nonzero"></path>
                <path d="M42.8325077,37.9002324 L42.8321081,40.4985463 C42.5843768,40.4942532 42.3389568,40.4804775 42.0961957,40.4575667 C41.7617411,39.7893069 41.4625694,39.1304246 41.1970623,38.4793362 L41.1970623,38.4793362 L41.3279753,38.4184771 C41.8327578,38.1909888 42.3341535,38.0182501 42.8325077,37.9002324 L42.8325077,37.9002324 Z M44.0019752,37.7233639 C44.922298,37.6636712 45.8329979,37.7939887 46.7376203,38.115583 C46.3706546,38.8151743 45.9362087,39.5048643 45.434321,40.1849424 C44.9693663,40.308105 44.4910144,40.3965464 44.0016005,40.4478286 Z M40.1551465,39.0410731 C40.3140684,39.428837 40.4841428,39.8188284 40.6653651,40.2110322 C40.1530683,40.0815568 39.657338,39.9104942 39.1819815,39.701622 C39.5087023,39.4576742 39.8327701,39.2384259 40.1551465,39.0410731 Z M47.8244086,38.5933679 C47.9885693,38.6798684 48.1525132,38.772714 48.3162538,38.8719035 C48.0090029,39.0822484 47.6881086,39.2730517 47.3557768,39.4448137 C47.5224488,39.162094 47.6785292,38.8785668 47.8244086,38.5933679 Z M33.6491514,32.6859718 L38.5304399,32.6863474 C38.6825799,34.3663998 39.0753332,36.0962525 39.7091114,37.8738725 C39.138913,38.2127792 38.5670007,38.6123067 37.9937227,39.0724262 C35.7509839,37.6817874 34.1318252,35.3809219 33.6491514,32.6859718 Z M52.3508486,32.6859718 C51.9705537,34.8093017 50.8847586,36.6879941 49.344682,38.0708303 C49.012593,37.8472069 48.6795665,37.6476644 48.3453405,37.4713139 C48.9858587,35.9218519 49.3344748,34.3261964 49.3915066,32.6867162 L49.3915066,32.6867162 Z M42.832,32.686 L42.832529,36.6199281 C42.1441546,36.7618878 41.4522576,36.9946421 40.7564776,37.3185569 C40.1980809,35.7273156 39.8465374,34.1836676 39.7014545,32.6862941 L39.7014545,32.6862941 L42.832,32.686 Z M44.001,32.686 L48.2236927,32.6863975 C48.1652473,34.1590485 47.8468397,35.5908304 47.2681967,36.9829485 C46.1909925,36.5757221 45.1010986,36.4034667 44.0011645,36.4659629 L44.0011645,36.4659629 L44.001,32.686 Z M49.8466689,24.4141563 C51.4897736,26.1219212 52.5,28.4429851 52.5,31 C52.5,31.1444667 52.4967753,31.2881802 52.490394,31.4310724 L49.3786393,31.4309037 C49.2751157,29.5375283 48.7930736,27.5880263 47.9329834,25.5859029 C48.5675613,25.284368 49.1981172,24.8997598 49.8241316,24.4320436 Z M37.4646341,23.2819453 C38.2046959,23.9383292 38.9431255,24.4912679 39.6788573,24.9403742 C38.8241201,27.0076909 38.4186693,29.172289 38.4613547,31.4303057 L38.4613547,31.4303057 L33.509606,31.4310724 C33.5032247,31.2881802 33.5,31.1444667 33.5,31 C33.5,27.8338848 35.0488366,25.0295198 37.4301645,23.3032503 Z M40.7234286,25.51003 C41.4294658,25.848391 42.1330886,26.0910459 42.833653,26.2379519 L42.833653,26.2379519 L42.832,31.43 L39.6279575,31.4303269 C39.589725,29.466936 39.9189195,27.5852795 40.6146083,25.7822243 L40.6146083,25.7822243 Z M46.8397347,26.0214408 C47.651223,27.8833239 48.1081937,29.6852552 48.2111093,31.430704 L48.2111093,31.430704 L44,31.43 L44.0006391,26.3942662 C44.9316098,26.4480874 45.856484,26.331026 46.7737269,26.04298 L46.7737269,26.04298 Z M44.0016005,21.5521714 C44.1078333,21.5633028 44.2135449,21.576185 44.3187059,21.5907885 C45.0960957,22.7079013 45.7570108,23.8045131 46.3025876,24.881574 C45.5402423,25.1027628 44.7734105,25.187867 44.0008372,25.1368033 L44.0008372,25.1368033 Z M42.8330249,21.8093221 L42.8337691,24.9571698 C42.3044918,24.8295903 41.7722708,24.639076 41.2367121,24.3856006 L41.2367121,24.3856006 L41.3314127,24.1964474 C41.7536905,23.3842377 42.2542586,22.5886325 42.8330249,21.8093221 L42.8330249,21.8093221 Z M46.0166776,21.9889699 C47.0822213,22.345533 48.0635934,22.8858023 48.9231863,23.5721703 C48.4208421,23.9302441 47.9175863,24.2257907 47.4126731,24.4607399 C47.0724653,23.7735981 46.6885976,23.0804471 46.2610882,22.381424 Z M41.4975052,21.6177255 C41.0023828,22.3367031 40.5678707,23.0691955 40.1939529,23.8151863 C39.6488648,23.4771792 39.1001166,23.0750108 38.5473032,22.6086542 C39.4274277,22.1381484 40.3898447,21.8046827 41.4072142,21.6329416 Z" id="形状结合" fill="#B8D0FF"></path>
                <path d="M25.7804973,9.31203058 C26.1277552,8.59923797 27.1094839,8.56520698 27.5188928,9.20557314 L27.5816214,9.3185445 L32.104,18.775 L40.1923077,18.775641 C40.7051435,18.775641 41.1278149,19.1616812 41.18558,19.6590199 L41.1923077,19.775641 C41.1923077,20.2884769 40.8062675,20.7111482 40.3089288,20.7689133 L40.1923077,20.775641 L31.474359,20.775641 C31.1320486,20.775641 30.8167741,20.6009184 30.6342445,20.3180932 L30.5722248,20.2070965 L26.671,12.05 L19.2964258,27.1879694 C18.9392713,27.921076 17.9200548,27.93114 17.532263,27.2525103 L17.4764686,27.13964 L13.18,16.984 L8.10053741,20.7995967 C7.69290199,21.1057514 7.12741501,21.0533636 6.78196347,20.6961581 L6.70040334,20.6005374 C6.39424858,20.192902 6.44663637,19.627415 6.80384192,19.2819635 L6.89946259,19.2004033 L13.0020267,14.61707 C13.4893854,14.251039 14.1775617,14.4053782 14.4704095,14.9194611 L14.5235314,15.0270267 L18.461,24.335 L25.7804973,9.31203058 Z" id="路径-56" fill="#4F8EFD" fill-rule="nonzero"></path>
            </g>
        </g>
    </g>
</svg>