<?xml version="1.0" encoding="UTF-8"?>
<svg width="24px" height="24px" viewBox="0 0 24 24" version="1.1" xmlns="http://www.w3.org/2000/svg" xmlns:xlink="http://www.w3.org/1999/xlink">
    <title>mdpi/编组 3</title>
    <defs>
        <linearGradient x1="19.8923945%" y1="15.9077622%" x2="74.1267171%" y2="80.4232239%" id="linearGradient-1">
            <stop stop-color="#5CE4F0" stop-opacity="0.984183785" offset="0%"></stop>
            <stop stop-color="#1EA7DD" offset="100%"></stop>
        </linearGradient>
    </defs>
    <g id="页面-1" stroke="none" stroke-width="1" fill="none" fill-rule="evenodd">
        <g id="充值记录-国际号码检测" transform="translate(-238.000000, -100.000000)">
            <g id="编组-3" transform="translate(238.000000, 100.000000)">
                <circle id="椭圆形" fill="url(#linearGradient-1)" cx="12" cy="12" r="12"></circle>
                <g id="编组-2" transform="translate(4.500000, 5.500000)" fill="#FFFFFF" fill-rule="nonzero">
                    <path d="M12.5,0 C13.2796961,0 13.9204487,0.594888083 13.9931334,1.35553999 L14,1.5 L14,5.5 C14,6.27969612 13.4051119,6.92044868 12.64446,6.99313342 L12.5,7 L11.1785714,7 L11.1785714,6 L12.5,6 C12.7454599,6 12.9496084,5.82312484 12.9919443,5.58987563 L13,5.5 L13,1.5 C13,1.25454011 12.8231248,1.05039163 12.5898756,1.00805567 L12.5,1 L1.5,1 C1.25454011,1 1.05039163,1.17687516 1.00805567,1.41012437 L1,1.5 L1,5.5 C1,5.74545989 1.17687516,5.94960837 1.41012437,5.99194433 L1.5,6 L2.82142857,6 L2.82142857,7 L1.5,7 C0.720303883,7 0.0795513218,6.40511192 0.00686657806,5.64446001 L0,5.5 L0,1.5 C0,0.720303883 0.594888083,0.0795513218 1.35553999,0.00686657806 L1.5,0 L12.5,0 Z" id="矩形"></path>
                    <path d="M12,3.25 C12.1380712,3.25 12.25,3.36192881 12.25,3.5 C12.25,3.61834673 12.1677666,3.71748682 12.0573227,3.74339732 L12,3.75 L2,3.75 C1.86192881,3.75 1.75,3.63807119 1.75,3.5 C1.75,3.38165327 1.83223341,3.28251318 1.94267729,3.25660268 L2,3.25 L12,3.25 Z" id="路径-38"></path>
                    <path d="M11.5,3.5 L11.5,13.5 C11.5,14.0522847 11.0522847,14.5 10.5,14.5 L3.5,14.5 C2.94771525,14.5 2.5,14.0522847 2.5,13.5 L2.5,3.5 L11.5,3.5 Z M11,4 L3,4 L3,13.5 C3,13.7454599 3.17687516,13.9496084 3.41012437,13.9919443 L3.5,14 L10.5,14 C10.7454599,14 10.9496084,13.8231248 10.9919443,13.5898756 L11,13.5 L11,4 Z" id="矩形"></path>
                    <path d="M5.29198743,6.86132495 C5.35581086,6.76558981 5.47423791,6.72807599 5.57842346,6.76255252 L5.63867505,6.79198743 L7.13867505,7.79198743 C7.1908373,7.82676226 7.22737646,7.8793635 7.2423859,7.9387545 L7.25,8 L7.25,11 C7.25,11.1380712 7.13807119,11.25 7,11.25 C6.88165327,11.25 6.78251318,11.1677666 6.75660268,11.0573227 L6.75,11 L6.75,8.134 L5.36132495,7.20801257 C5.26558981,7.14418914 5.22807599,7.02576209 5.26255252,6.92157654 L5.29198743,6.86132495 Z" id="路径-39"></path>
                    <path d="M8.3881966,6.7763932 C8.51169123,6.71464589 8.66185949,6.76470198 8.7236068,6.8881966 C8.77506289,6.99110879 8.74887774,7.11254433 8.66725322,7.18589757 L8.6118034,7.2236068 L7.6118034,7.7236068 C7.48830877,7.78535411 7.33814051,7.73529802 7.2763932,7.6118034 C7.22493711,7.50889121 7.25112226,7.38745567 7.33274678,7.31410243 L7.3881966,7.2763932 L8.3881966,6.7763932 Z" id="路径-40"></path>
                    <path d="M8.5,8.25 C8.63807119,8.25 8.75,8.36192881 8.75,8.5 C8.75,8.61834673 8.66776659,8.71748682 8.55732271,8.74339732 L8.5,8.75 L5.5,8.75 C5.36192881,8.75 5.25,8.63807119 5.25,8.5 C5.25,8.38165327 5.33223341,8.28251318 5.44267729,8.25660268 L5.5,8.25 L8.5,8.25 Z" id="路径-41"></path>
                    <path d="M8.5,9.25 C8.63807119,9.25 8.75,9.36192881 8.75,9.5 C8.75,9.61834673 8.66776659,9.71748682 8.55732271,9.74339732 L8.5,9.75 L5.5,9.75 C5.36192881,9.75 5.25,9.63807119 5.25,9.5 C5.25,9.38165327 5.33223341,9.28251318 5.44267729,9.25660268 L5.5,9.25 L8.5,9.25 Z" id="路径-42"></path>
                </g>
            </g>
        </g>
    </g>
</svg>