<?xml version="1.0" encoding="UTF-8"?>
<svg width="62px" height="62px" viewBox="0 0 62 62" version="1.1" xmlns="http://www.w3.org/2000/svg" xmlns:xlink="http://www.w3.org/1999/xlink">
    <!-- Generator: Sketch 64 (93537) - https://sketch.com -->
    <title>编组 2</title>
    <desc>Created with Sketch.</desc>
    <g id="页面-1" stroke="none" stroke-width="1" fill="none" fill-rule="evenodd">
        <g id="登录备份" transform="translate(-1356.000000, -269.000000)" fill="#6799EE">
            <g id="编组-2" transform="translate(1352.000000, 269.000000)">
                <text id="密码登录" transform="translate(27.000000, 39.000000) rotate(-315.000000) translate(-27.000000, -39.000000) " font-family="PingFangSC-Medium, PingFang SC" font-size="14" font-weight="400">
                    <tspan x="-1" y="44">密码登录</tspan>
                </text>
                <g id="电脑-2" transform="translate(16.000000, 0.000000)" fill-rule="nonzero">
                    <g id="电脑">
                        <path d="M3.38947035,17.4552567 L0,13.9237164 L0,3.60464548 C0,3.60464548 0,0 3.52999565,0 L46.4689077,0 C46.4689077,0 50.0719765,0 49.9989034,3.60464548 L49.9989034,35.1185819 C49.9989034,35.1185819 49.9989034,38.6501222 46.4689077,38.6501222 L31.854276,38.6501222 L31.9948013,46 L21.0450696,35.1185819 L46.4689077,35.1185819 L46.4689077,3.60464548 L3.38947035,3.60464548 L3.38947035,17.4552567 Z" id="路径"></path>
                        <path d="M10.7843137,23.9585311 L10.7843137,9 L39.639192,9 L39.639192,29.8606534 L16.1224938,29.8606534 L10.7843137,23.9585311 Z M32.2860836,46.5480313 L41.9963822,46.5480313 C41.9963822,46.5480313 44.5633458,48.276878 41.9963822,50 L35.6148557,50 L32.2860836,46.5480313 L32.2860836,46.5480313 Z" id="形状"></path>
                    </g>
                </g>
            </g>
        </g>
    </g>
</svg>