<?xml version="1.0" encoding="UTF-8"?>
<svg width="49px" height="64px" viewBox="0 0 49 64" version="1.1" xmlns="http://www.w3.org/2000/svg" xmlns:xlink="http://www.w3.org/1999/xlink">
    <!-- Generator: Sketch 64 (93537) - https://sketch.com -->
    <title>编组 3</title>
    <desc>Created with Sketch.</desc>
    <g id="页面-1" stroke="none" stroke-width="1" fill="none" fill-rule="evenodd">
        <g id="登录备份-2" transform="translate(-1359.000000, -269.000000)" fill="#6799EE">
            <g id="编组-3" transform="translate(1354.000000, 269.000000)">
                <path d="M51.1,0 C52.7008,0 54,1.40374355 54,3.138475 L54,3.138475 L54,47.1007672 C54,48.4065625 53.2613432,49.5275359 52.2116974,50 L39.922,38.418 L51.1,38.4182441 L51.1,5.91049907 L27.9,5.91049907 L27.9,27.089 L25,24.356 L25,3.138475 C25,1.46569824 26.2053606,0.100689575 27.7293964,0.00532259941 L27.9,0 Z" id="形状结合" fill-rule="nonzero"></path>
                <text id="手机登录" transform="translate(27.000000, 41.000000) rotate(-315.000000) translate(-27.000000, -41.000000) " font-family="PingFangSC-Medium, PingFang SC" font-size="14" font-weight="400">
                    <tspan x="-1" y="46">手机登录</tspan>
                </text>
                <polygon id="矩形" points="31 9 48 9 48 35 36.7661041 35 31 29.091803"></polygon>
            </g>
        </g>
    </g>
</svg>