<?xml version="1.0" encoding="UTF-8"?>
<svg width="16px" height="16px" viewBox="0 0 16 16" version="1.1" xmlns="http://www.w3.org/2000/svg" xmlns:xlink="http://www.w3.org/1999/xlink">
    <!-- Generator: Sketch 64 (93537) - https://sketch.com -->
    <title>形状结合</title>
    <desc>Created with Sketch.</desc>
    <g id="页面-1" stroke="none" stroke-width="1" fill="none" fill-rule="evenodd">
        <g id="历史检测" transform="translate(-846.000000, -1405.000000)" fill="#28B88C" fill-rule="nonzero">
            <g id="修改解压密码" transform="translate(846.000000, 1405.000000)">
                <path d="M3,0 L13,0 L13,4 L11,4 L11,2 L5,2 L5,5 L16,5 L16,16 L0,16 L0,5 L3,5 L3,0 Z M4,9 C3.447715,9 3,9.447715 3,10 C3,10.552285 3.447715,11 4,11 C4.552285,11 5,10.552285 5,10 C5,9.447715 4.552285,9 4,9 Z M8,9 C7.447715,9 7,9.447715 7,10 C7,10.552285 7.447715,11 8,11 C8.552285,11 9,10.552285 9,10 C9,9.447715 8.552285,9 8,9 Z M12,9 C11.447715,9 11,9.447715 11,10 C11,10.552285 11.447715,11 12,11 C12.552285,11 13,10.552285 13,10 C13,9.447715 12.552285,9 12,9 Z" id="形状结合"></path>
            </g>
        </g>
    </g>
</svg>